<?xml version="1.0" standalone="no"?><svg xmlns="http://www.w3.org/2000/svg" viewBox="0 0 1440 320"><path fill="#FF8F00" fill-opacity="1" d="M0,224L13.3,213.3C26.7,203,53,181,80,149.3C106.7,117,133,75,160,53.3C186.7,32,213,32,240,42.7C266.7,53,293,75,320,122.7C346.7,171,373,245,400,277.3C426.7,309,453,299,480,261.3C506.7,224,533,160,560,144C586.7,128,613,160,640,181.3C666.7,203,693,213,720,202.7C746.7,192,773,160,800,154.7C826.7,149,853,171,880,181.3C906.7,192,933,192,960,186.7C986.7,181,1013,171,1040,138.7C1066.7,107,1093,53,1120,64C1146.7,75,1173,149,1200,154.7C1226.7,160,1253,96,1280,85.3C1306.7,75,1333,117,1360,149.3C1386.7,181,1413,203,1427,213.3L1440,224L1440,0L1426.7,0C1413.3,0,1387,0,1360,0C1333.3,0,1307,0,1280,0C1253.3,0,1227,0,1200,0C1173.3,0,1147,0,1120,0C1093.3,0,1067,0,1040,0C1013.3,0,987,0,960,0C933.3,0,907,0,880,0C853.3,0,827,0,800,0C773.3,0,747,0,720,0C693.3,0,667,0,640,0C613.3,0,587,0,560,0C533.3,0,507,0,480,0C453.3,0,427,0,400,0C373.3,0,347,0,320,0C293.3,0,267,0,240,0C213.3,0,187,0,160,0C133.3,0,107,0,80,0C53.3,0,27,0,13,0L0,0Z"></path></svg>